<svg width="280" height="29" viewBox="0 0 280 29" fill="none" xmlns="http://www.w3.org/2000/svg">
<path d="M167.313 11.513H157.458L159.27 8.19339H169.125L167.313 11.513ZM172.318 3.78005H160.409L151.831 19.5338H148.828L159.218 0.460449H174.113L172.318 3.78005ZM169.867 19.5338H166.864L177.254 0.460449H180.275L169.867 19.5338ZM198.087 3.78005H191.304L182.708 19.5338H179.74L188.318 3.78005H181.483L183.295 0.460449H199.899L198.087 3.78005ZM209.685 17.8836C209.029 19.1116 208.304 19.7256 207.545 19.7256C206.992 19.7256 206.578 19.3419 206.302 18.5743L201.935 6.29374L194.721 19.5338H191.735L201.228 2.11066C201.469 1.65013 201.797 1.26636 202.194 0.94016C202.591 0.613957 202.988 0.460449 203.385 0.460449C203.938 0.460449 204.335 0.786653 204.576 1.43906L208.96 13.7005L216.174 0.460449H219.178L209.685 17.8836ZM231.346 11.513H221.49L223.303 8.19339H233.158L231.346 11.513ZM227.773 19.5338H212.861L223.251 0.460449H238.163L236.351 3.78005H224.459L217.676 16.195H229.585L227.773 19.5338ZM252.782 13.6429C251.798 15.4466 250.435 16.8858 248.674 17.9987C247 19.0157 245.326 19.5338 243.669 19.5338H230.5L232.312 16.195H245.481C246.292 16.195 247.121 16.0031 247.949 15.6001C248.933 15.082 249.641 14.4104 250.107 13.547C250.573 12.7027 250.573 12.0311 250.124 11.5706C249.744 11.1868 249.14 10.9757 248.329 10.9757H240.182C238.681 10.9757 237.68 10.5344 237.162 9.61334C236.627 8.63473 236.8 7.32991 237.68 5.71808C238.56 4.10625 239.785 2.82063 241.408 1.82283C242.927 0.920972 244.428 0.460449 245.913 0.460449H258.926L257.131 3.78005H244.118C243.531 3.78005 242.961 3.95275 242.357 4.31733C241.753 4.66272 241.304 5.14243 240.976 5.73727C240.631 6.3513 240.579 6.83101 240.804 7.15722C241.028 7.50261 241.425 7.65612 241.995 7.65612H250.124C251.798 7.65612 252.903 8.19339 253.438 9.24876C253.99 10.3617 253.783 11.82 252.782 13.6429ZM273.856 13.6429C272.872 15.4466 271.508 16.8858 269.748 17.9987C268.074 19.0157 266.399 19.5338 264.743 19.5338H251.574L253.386 16.195H266.555C267.366 16.195 268.194 16.0031 269.023 15.6001C270.007 15.082 270.714 14.4104 271.18 13.547C271.646 12.7027 271.646 12.0311 271.198 11.5706C270.818 11.1868 270.214 10.9757 269.403 10.9757H261.256C259.755 10.9757 258.754 10.5344 258.236 9.61334C257.701 8.63473 257.873 7.32991 258.754 5.71808C259.634 4.10625 260.859 2.82063 262.482 1.82283C264 0.920972 265.502 0.460449 266.986 0.460449H280L278.205 3.78005H265.191C264.605 3.78005 264.035 3.95275 263.431 4.31733C262.827 4.66272 262.378 5.14243 262.05 5.73727C261.705 6.3513 261.653 6.83101 261.878 7.15722C262.102 7.50261 262.499 7.65612 263.068 7.65612H271.198C272.872 7.65612 273.976 8.19339 274.511 9.24876C275.064 10.3617 274.857 11.82 273.856 13.6429Z" fill="#AF4642"/>
<path d="M68.1575 26.2496C68.1575 26.9787 67.9331 27.5928 67.5189 28.0725C67.0874 28.5714 66.5351 28.8016 65.8793 28.8016H63.3594V23.7935H65.8793C66.5524 23.7935 67.0874 24.0237 67.5189 24.4842C67.9504 24.9256 68.1575 25.5204 68.1575 26.2496ZM67.3636 26.3263C67.3636 25.8466 67.2255 25.4437 66.9493 25.1366C66.6732 24.8296 66.3107 24.6761 65.8793 24.6761H64.1361V27.9382H65.8793C66.3107 27.9382 66.6732 27.7847 66.9493 27.4776C67.2255 27.1898 67.3636 26.806 67.3636 26.3263Z" fill="white"/>
<path d="M73.9228 28.8016H73.1289V23.7935H73.9228V28.8016ZM84.0196 27.2666C84.0196 27.7271 83.8643 28.1109 83.5536 28.3987C83.2775 28.6673 82.915 28.8016 82.4663 28.8016H79.0316V27.9382H82.4663C82.6906 27.9382 82.8805 27.8806 83.0358 27.7655C83.2084 27.6311 83.2947 27.4584 83.2947 27.2282C83.2947 27.0171 83.2084 26.8444 83.0186 26.7101C82.8632 26.6142 82.6906 26.5566 82.4663 26.5566H80.3434C79.9636 26.5566 79.6357 26.4415 79.3768 26.2112C79.0834 25.9426 78.9453 25.5972 78.9453 25.175C78.9453 24.7529 79.0834 24.4267 79.3768 24.158C79.6357 23.9278 79.9636 23.7935 80.3434 23.7935H83.7435V24.6761H80.3434C80.2053 24.6761 80.0672 24.7145 79.9636 24.8104C79.8601 24.9064 79.8083 25.0215 79.8083 25.1942C79.8083 25.3477 79.8601 25.4629 79.9636 25.5588C80.0672 25.6547 80.2053 25.6931 80.3434 25.6931H82.4663C82.915 25.6931 83.2775 25.8274 83.5536 26.1153C83.8643 26.4031 84.0196 26.7869 84.0196 27.2666ZM92.96 24.6761H91.1995V28.8016H90.4229V24.6761H88.6452V23.7935H92.96V24.6761ZM103.005 28.8016H101.831L100.571 27.4009H98.88V26.5374H100.986C101.279 26.5374 101.521 26.4607 101.728 26.3263C101.952 26.1536 102.056 25.9234 102.056 25.6164C102.056 24.9831 101.711 24.6761 100.986 24.6761H98.414V28.8016H97.6373V23.7935H100.865C101.452 23.7935 101.918 23.947 102.263 24.2156C102.677 24.5418 102.884 25.0023 102.884 25.6164C102.884 26.0385 102.763 26.4031 102.522 26.7101C102.315 26.9787 102.004 27.1898 101.624 27.2858L103.005 28.8016ZM108.856 28.8016H108.062V23.7935H108.856V28.8016ZM119.177 27.3433C119.177 27.5544 119.125 27.7655 119.039 27.9573C118.746 28.5138 118.193 28.8016 117.382 28.8016H114.155V23.7935H117.382C118.159 23.7935 118.694 24.0621 119.005 24.5994C119.125 24.8104 119.177 25.0407 119.177 25.2902C119.177 25.6931 119.022 26.0385 118.711 26.3263C119.022 26.595 119.177 26.9404 119.177 27.3433ZM118.418 25.271C118.418 25.0599 118.314 24.9064 118.09 24.7913C117.917 24.7145 117.727 24.6569 117.503 24.6569H114.949V27.919H117.503C117.727 27.919 117.917 27.8806 118.073 27.823C118.314 27.7079 118.418 27.5544 118.418 27.3625C118.418 27.1514 118.314 26.9979 118.073 26.8828C117.9 26.806 117.71 26.7677 117.503 26.7677H115.397V25.9042H117.503C117.727 25.9042 117.917 25.8466 118.09 25.7699C118.314 25.6547 118.418 25.482 118.418 25.271ZM129.274 26.5566C129.274 27.3625 129.05 27.9573 128.618 28.3219C128.221 28.6481 127.669 28.8016 126.909 28.8016H126.65C125.891 28.8016 125.321 28.6481 124.942 28.3219C124.51 27.9573 124.286 27.3625 124.286 26.5566V23.7935H125.08V26.5566C125.08 27.1514 125.27 27.5544 125.632 27.7463C125.874 27.8806 126.305 27.9382 126.909 27.9382C127.427 27.9382 127.79 27.8422 128.031 27.6695C128.325 27.4584 128.48 27.0939 128.48 26.5566V23.7935H129.274V26.5566ZM138.49 24.6761H136.713V28.8016H135.936V24.6761H134.158V23.7935H138.49V24.6761ZM144.152 28.8016H143.358V23.7935H144.152V28.8016ZM155.111 26.2496C155.111 26.9787 154.904 27.5928 154.473 28.0725C154.041 28.5714 153.506 28.8016 152.85 28.8016H151.59C150.935 28.8016 150.399 28.5714 149.968 28.0725C149.536 27.5928 149.329 26.9787 149.329 26.2496C149.329 25.5204 149.536 24.9256 149.951 24.4842C150.382 24.0237 150.935 23.7935 151.59 23.7935H152.85C153.506 23.7935 154.058 24.0237 154.49 24.4842C154.904 24.9256 155.111 25.5204 155.111 26.2496ZM154.335 26.3263C154.335 25.8466 154.197 25.4437 153.92 25.1366C153.644 24.8296 153.282 24.6761 152.85 24.6761H151.59C151.159 24.6761 150.796 24.8296 150.52 25.1366C150.244 25.4437 150.106 25.8466 150.106 26.3263C150.106 26.806 150.244 27.1898 150.52 27.4776C150.796 27.7847 151.159 27.9382 151.59 27.9382H152.85C153.282 27.9382 153.644 27.7847 153.92 27.4776C154.197 27.1898 154.335 26.806 154.335 26.3263ZM164.466 28.3795C164.466 28.6865 164.38 28.8592 164.173 28.8592C164.034 28.8592 163.862 28.7633 163.689 28.5522L160.807 25.3285V28.8016H160.013V24.2348C160.013 24.1197 160.047 24.0237 160.099 23.9278C160.168 23.851 160.237 23.7935 160.358 23.7935C160.496 23.7935 160.652 23.8894 160.807 24.0621L163.689 27.2666V23.7935H164.466V28.3795ZM170.524 28.3795C170.524 28.5138 170.489 28.6289 170.42 28.7057C170.334 28.7825 170.248 28.8208 170.127 28.8208C170.006 28.8208 169.92 28.7825 169.834 28.7057C169.765 28.6289 169.73 28.5138 169.73 28.3795C169.73 28.2452 169.765 28.1492 169.834 28.0725C169.92 27.9765 170.006 27.9382 170.127 27.9382C170.248 27.9382 170.334 27.9765 170.42 28.0725C170.489 28.1492 170.524 28.2452 170.524 28.3795ZM181.087 28.8016H179.913L178.653 27.4009H176.962V26.5374H179.085C179.361 26.5374 179.602 26.4607 179.81 26.3263C180.034 26.1536 180.137 25.9234 180.137 25.6164C180.137 24.9831 179.792 24.6761 179.085 24.6761H176.513V28.8016H175.719V23.7935H178.947C179.533 23.7935 179.999 23.947 180.362 24.2156C180.759 24.5418 180.966 25.0023 180.966 25.6164C180.966 26.0385 180.845 26.4031 180.603 26.7101C180.396 26.9787 180.086 27.1898 179.723 27.2858L181.087 28.8016ZM189.699 26.7101H187.128V25.8274H189.699V26.7101ZM189.906 28.8016H186.023V23.7935H189.906V24.6761H186.8V27.9382H189.906V28.8016ZM199.054 24.6761H197.276V28.8016H196.499V24.6761H194.722V23.7935H199.054V24.6761ZM209.582 28.8016H208.581L207.822 27.4009H205.681L206.165 26.5374H207.356L206.579 25.0983L204.542 28.8016H203.541L205.975 24.2732C206.044 24.158 206.13 24.0621 206.234 23.947C206.372 23.851 206.493 23.7935 206.596 23.7935C206.7 23.7935 206.821 23.8318 206.941 23.947C207.045 24.0429 207.131 24.158 207.2 24.2732L209.582 28.8016ZM215.088 28.8016H214.311V23.7935H215.088V28.8016ZM224.046 28.8016H220.162V23.7935H220.956V27.9382H224.046V28.8016ZM229.638 28.3795C229.638 28.5138 229.603 28.6289 229.517 28.7057C229.448 28.7825 229.344 28.8208 229.223 28.8208C229.12 28.8208 229.016 28.7825 228.947 28.7057C228.861 28.6289 228.826 28.5138 228.826 28.3795C228.826 28.2452 228.861 28.1492 228.947 28.0725C229.016 27.9765 229.12 27.9382 229.223 27.9382C229.344 27.9382 229.448 27.9765 229.517 28.0725C229.603 28.1492 229.638 28.2452 229.638 28.3795ZM239.614 28.8016H237.076C236.421 28.8016 235.868 28.5714 235.454 28.0725C235.023 27.5928 234.798 26.9787 234.798 26.2496C234.798 25.5204 235.023 24.9256 235.437 24.4842C235.868 24.0237 236.403 23.7935 237.076 23.7935H239.614V24.6761H237.076C236.645 24.6761 236.282 24.8296 236.006 25.1366C235.73 25.4437 235.592 25.8466 235.592 26.3263C235.592 26.806 235.73 27.1898 236.006 27.4776C236.282 27.7847 236.645 27.9382 237.076 27.9382H239.614V28.8016ZM248.261 28.8016H244.377V23.7935H245.154V27.9382H248.261V28.8016ZM258.116 26.5566C258.116 27.3625 257.891 27.9573 257.46 28.3219C257.08 28.6481 256.511 28.8016 255.768 28.8016H255.492C254.733 28.8016 254.181 28.6481 253.784 28.3219C253.352 27.9573 253.145 27.3625 253.145 26.5566V23.7935H253.922V26.5566C253.922 27.1514 254.111 27.5544 254.491 27.7463C254.733 27.8806 255.147 27.9382 255.768 27.9382C256.269 27.9382 256.649 27.8422 256.89 27.6695C257.184 27.4584 257.322 27.0939 257.322 26.5566V23.7935H258.116V26.5566ZM268.333 27.3433C268.333 27.5544 268.281 27.7655 268.195 27.9573C267.902 28.5138 267.349 28.8016 266.538 28.8016H263.311V23.7935H266.538C267.315 23.7935 267.85 24.0621 268.161 24.5994C268.281 24.8104 268.333 25.0407 268.333 25.2902C268.333 25.6931 268.178 26.0385 267.867 26.3263C268.178 26.595 268.333 26.9404 268.333 27.3433ZM267.574 25.271C267.574 25.0599 267.47 24.9064 267.246 24.7913C267.073 24.7145 266.883 24.6569 266.659 24.6569H264.105V27.919H266.659C266.883 27.919 267.073 27.8806 267.229 27.823C267.47 27.7079 267.574 27.5544 267.574 27.3625C267.574 27.1514 267.47 26.9979 267.229 26.8828C267.056 26.806 266.866 26.7677 266.659 26.7677H264.553V25.9042H266.659C266.883 25.9042 267.073 25.8466 267.246 25.7699C267.47 25.6547 267.574 25.482 267.574 25.271ZM278.188 27.2666C278.188 27.7271 278.033 28.1109 277.722 28.3987C277.446 28.6673 277.084 28.8016 276.635 28.8016H273.2V27.9382H276.635C276.859 27.9382 277.049 27.8806 277.205 27.7655C277.377 27.6311 277.481 27.4584 277.481 27.2282C277.481 27.0171 277.377 26.8444 277.187 26.7101C277.049 26.6142 276.859 26.5566 276.635 26.5566H274.512C274.132 26.5566 273.805 26.4415 273.546 26.2112C273.252 25.9426 273.114 25.5972 273.114 25.175C273.114 24.7529 273.252 24.4267 273.546 24.158C273.805 23.9278 274.132 23.7935 274.512 23.7935H277.912V24.6761H274.512C274.374 24.6761 274.236 24.7145 274.132 24.8104C274.029 24.9064 273.977 25.0215 273.977 25.1942C273.977 25.3477 274.029 25.4629 274.132 25.5588C274.236 25.6547 274.374 25.6931 274.512 25.6931H276.635C277.084 25.6931 277.446 25.8274 277.722 26.1153C278.033 26.4031 278.188 26.7869 278.188 27.2666Z" fill="white"/>
<path d="M0 0.211182H13.0309L28.8578 28.8979H15.8097L0 0.211182Z" fill="white"/>
<path d="M15.3281 0.211182H28.3763L44.2032 28.8979H31.155L15.3281 0.211182Z" fill="white"/>
<path d="M30.6172 0.211182H59.7339L54.7114 8.96111H35.4326L30.6172 0.211182Z" fill="#B44843"/>
<path d="M48.241 20.244H41.5443L36.5391 11.1487H53.4533L48.241 20.244Z" fill="#B44843"/>
<path d="M72.7489 19.0158L62.3242 0.0191884L65.8969 0.0383769L73.7155 14.1035L75.7693 10.4769L70.0392 0.0191884L73.5946 0.0383769L81.2924 13.8924L88.9383 0L92.5628 0.0191884C89.0246 6.40894 85.5382 12.7028 82.069 19.0158H80.5157L77.5471 13.7006C76.5115 15.5618 75.545 17.2888 74.5784 19.0158H72.7489Z" fill="#FEFEFE"/>
<path d="M84.8828 19.0149L95.3938 0.037499L112.929 0.0183105L111.117 3.16522L110.513 3.14603H97.2406L90.1297 16.0023H103.937L102.263 19.0149H84.8828Z" fill="#FEFEFE"/>
<path d="M125.562 19.0158L136.004 0L139.612 0.0191884L130.74 16.0224H144.203L142.373 19.0158H125.562Z" fill="#FEFEFE"/>
<path d="M105.645 19.0158L110.408 10.3234L115.724 0.709973L116.121 0L119.694 0.0191884L110.857 16.0032H124.181L122.455 19.0158H105.645Z" fill="#FEFEFE"/>
<path d="M95.082 11.0525L96.6872 7.96313L108.199 8.00151L106.456 11.0717L95.082 11.0525Z" fill="#FEFEFE"/>
</svg>
