<svg width="24" height="21" viewBox="0 0 24 21" fill="none" xmlns="http://www.w3.org/2000/svg">
<g opacity="0.7">
<path d="M22.0718 2.46031C19.4616 -0.149176 15.2154 -0.149176 12.6059 2.46031L11.9998 3.06606L11.394 2.46031C8.78455 -0.14953 4.53795 -0.14953 1.92847 2.46031C-0.628032 5.01681 -0.644633 9.06914 1.88997 11.8867C4.2017 14.4555 11.0196 20.0054 11.3089 20.2403C11.5053 20.4 11.7416 20.4777 11.9765 20.4777C11.9842 20.4777 11.992 20.4777 11.9994 20.4773C12.2424 20.4886 12.4872 20.4053 12.6899 20.2403C12.9792 20.0054 19.7979 14.4555 22.1103 11.8863C24.6445 9.06914 24.6279 5.01681 22.0718 2.46031ZM20.535 10.4689C18.7326 12.4712 13.7782 16.6009 11.9994 18.0663C10.2207 16.6013 5.26732 12.4719 3.46527 10.4692C1.69712 8.50401 1.68052 5.70521 3.42677 3.95896C4.31861 3.06747 5.48984 2.62137 6.66107 2.62137C7.8323 2.62137 9.00354 3.06711 9.89538 3.95896L11.2277 5.29125C11.3863 5.44984 11.5862 5.5445 11.796 5.5777C12.1365 5.65081 12.5059 5.5558 12.7708 5.2916L14.1038 3.95896C15.8879 2.17562 18.7898 2.17598 20.5728 3.95896C22.319 5.70521 22.3024 8.50401 20.535 10.4689Z" fill="white"/>
</g>
</svg>
