<svg width="40" height="40" viewBox="0 0 40 40" fill="none" xmlns="http://www.w3.org/2000/svg">
<path d="M40 19.9999C40 13.4837 34.7097 8.12891 28.129 8.12891C25.2903 8.12891 22.7097 9.09665 20.6452 10.7741C22.1935 12.2579 23.4194 14.1289 24 16.2579H23.0323C22.3871 14.387 21.3548 12.7096 19.9355 11.3547C18.5161 12.7096 17.4839 14.387 16.8387 16.2579H15.871C16.5161 14.1289 17.6774 12.2579 19.2258 10.7741C17.1613 9.09665 14.6452 8.12891 11.8065 8.12891C5.29032 8.12891 0 13.4837 0 19.9999C0 26.516 5.29032 31.8708 11.871 31.8708C14.7097 31.8708 17.2903 30.8386 19.2903 29.2257C17.7419 27.7418 16.5806 25.8708 15.9355 23.7418H16.9032C17.5484 25.6128 18.5806 27.2902 20 28.645C21.4194 27.2902 22.5161 25.6128 23.0968 23.7418H24.0645C23.4194 25.8708 22.2581 27.7418 20.7097 29.2257C22.7742 30.9031 25.3548 31.8708 28.1935 31.8708C34.7097 31.8708 40 26.516 40 19.9999Z" fill="#858FA4"/>
<path d="M31.2891 22.7738L32.1278 18.3867H33.16L33.2891 18.8383C33.4826 18.6448 33.8052 18.3867 34.4503 18.3867L34.1278 19.548C33.8052 19.548 33.2891 19.4835 32.902 20.7738L32.5149 22.7738H31.2891Z" fill="#1A1A25"/>
<path d="M15.481 17.29H16.6423L16.3842 18.4513H17.0294L16.8358 19.3546H16.2552L15.9326 21.0965C15.8681 21.4191 15.9326 21.7417 16.5777 21.6126L16.4487 22.5804C16.1906 22.7739 15.8681 22.7739 15.5455 22.7739C15.2874 22.7739 14.3842 22.5804 14.5777 21.4191L15.481 17.29Z" fill="#1A1A25"/>
<path d="M20.6447 20.8383C20.7737 20.1287 21.0963 18.3867 19.0318 18.3867C17.0963 18.3867 16.8382 20.3222 16.8382 20.5803C16.7737 20.8383 16.7737 22.7738 18.8382 22.7738C19.3544 22.7738 20.064 22.7093 20.3866 22.5803L20.5802 21.677C20.3866 21.7416 19.7415 21.8061 19.2253 21.8061C18.7737 21.8061 17.9995 21.8061 18.1286 20.8383H20.6447Z" fill="#1A1A25"/>
<path d="M14.3235 19.419L14.5815 18.5158C14.0009 18.3223 13.5493 18.3223 13.4202 18.3223C13.2267 18.3223 11.8073 18.3223 11.6138 19.3545C11.4202 20.1932 11.7428 20.5158 12.0009 20.6448C12.4525 20.8384 12.7106 21.0319 12.9686 21.161C13.2912 21.29 13.2267 21.8061 12.8396 21.8061C12.646 21.8061 11.8718 21.8707 11.2912 21.6771L11.0977 22.5803C11.6783 22.7094 12.0654 22.7094 12.517 22.7094C12.8396 22.7094 14.2589 22.7739 14.4525 21.4836C14.5815 20.8384 14.2589 20.5803 14.0654 20.3868C13.8073 20.2577 13.4848 19.9997 13.2267 19.9352C12.9686 19.8061 12.7751 19.419 13.2267 19.29C13.4202 19.3545 14.0009 19.3545 14.3235 19.419Z" fill="#1A1A25"/>
<path d="M6.57964 22.7737L7.61189 17.4834H5.6119L4.19254 20.7092L3.93448 17.4834H2.06351L1.03125 22.7737H2.19254L2.96673 18.9673L3.28931 22.7737H4.38609L6.06351 19.0318L5.35383 22.7737H6.57964Z" fill="#1A1A25"/>
<path d="M7.93298 18.5161L7.73943 19.4838C8.06201 19.4838 8.8362 19.3548 9.2233 19.3548C9.61039 19.3548 10.1265 19.2903 9.93297 19.9354C9.61039 19.9354 7.48136 19.6129 7.15878 21.4838C7.02975 22.3871 7.80394 22.8387 8.38459 22.8387C8.96523 22.8387 9.15878 22.7096 9.35233 22.5806L9.48136 22.8387H10.5781L11.0297 20.4516C11.1588 19.8709 11.3523 18.4516 9.35233 18.4516C9.09427 18.387 8.70717 18.387 7.93298 18.5161Z" fill="#1A1A25"/>
<path d="M27.226 18.7094C26.9035 18.5159 26.7099 18.5159 26.3228 18.5159C25.9357 18.5159 25.0325 18.903 24.9035 19.9352C24.7099 21.2256 25.5486 21.8062 26.7744 21.4191L27.097 22.5159C26.7099 22.7094 26.3228 22.774 25.6777 22.774C24.4519 22.774 23.097 21.6772 23.6777 19.4191C24.1293 17.8062 25.5486 17.1611 26.3873 17.2256C27.3551 17.2901 27.7422 17.6127 28.0002 17.9352L27.226 18.7094Z" fill="#1A1A25"/>
<path d="M37.3537 18.903C37.0956 18.7095 36.9666 18.3869 36.4505 18.3869C35.8053 18.3869 34.7731 18.2578 34.1924 20.2578C33.8053 21.6127 34.5795 22.774 35.4182 22.774C35.8053 22.774 36.1924 22.5804 36.4505 22.4514L36.5795 22.774H37.8698L38.9021 17.2256H37.6763L37.3537 18.903Z" fill="#1A1A25"/>
<path d="M28.0658 18.5161L27.8722 19.4838C28.1948 19.4838 28.969 19.3548 29.3561 19.3548C29.7432 19.3548 30.1948 19.2903 30.0658 19.9354C29.7432 19.9354 27.6142 19.6129 27.2916 21.4838C27.1626 22.3871 27.9368 22.8387 28.5174 22.8387C29.098 22.8387 29.2916 22.7096 29.4851 22.5806L29.6142 22.8387H30.7109L31.1626 20.4516C31.2916 19.8709 31.4851 18.4516 29.4851 18.4516C29.2916 18.387 28.84 18.387 28.0658 18.5161Z" fill="#1A1A25"/>
<path d="M18.1289 19.9998H19.6128C19.6773 19.5482 19.5483 19.2256 19.0966 19.2256C18.5805 19.2256 18.2579 19.4837 18.1289 19.9998Z" fill="#858FA4"/>
<path d="M9.74253 20.8384C9.54899 20.8384 9.09737 20.7094 8.71028 20.9674C8.32318 21.2255 8.19415 21.6771 8.64576 21.8061C9.03286 21.9352 9.54899 21.6771 9.67802 21.29L9.74253 20.8384Z" fill="#858FA4"/>
<path d="M36.967 20.7094C37.0961 20.3223 37.0316 19.8062 36.9025 19.6127C36.5154 19.0965 35.6767 19.4836 35.4187 20.4514C35.2251 21.0965 35.6122 21.5481 35.9993 21.5481C36.4509 21.5481 36.709 21.2256 36.967 20.7094Z" fill="#858FA4"/>
<path d="M29.9339 20.8384C29.7404 20.8384 29.2888 20.7094 28.9017 20.9674C28.5146 21.2255 28.3856 21.6771 28.8372 21.8061C29.2243 21.9352 29.8049 21.6771 29.8694 21.29L29.9339 20.8384Z" fill="#858FA4"/>
<path d="M20.6445 22.7743L21.4832 18.4517H22.5155L22.6445 18.9033C22.8381 18.7097 23.1607 18.4517 23.8058 18.4517L23.4832 19.613C23.2252 19.613 22.6445 19.5484 22.2574 20.8388L21.8703 22.8388H20.6445" fill="#1A1A25"/>
<path d="M11.8703 8.12891C6.64453 8.12891 2.19292 11.5483 0.644531 16.2579H15.9994C16.6445 14.1289 17.8058 12.2579 19.3542 10.7741C17.2252 9.16116 14.6445 8.12891 11.8703 8.12891Z" fill="#858FA4"/>
<path d="M19.9991 11.4194C18.5798 12.7743 17.5475 14.3872 16.9023 16.3227H23.0959C22.4507 14.4517 21.4185 12.7743 19.9991 11.4194Z" fill="#858FA4"/>
<path d="M28.1284 8.12891C25.2897 8.12891 22.709 9.09665 20.6445 10.7741C22.1929 12.2579 23.3542 14.1289 23.9994 16.2579H39.3542C37.8703 11.5483 33.4187 8.12891 28.1284 8.12891Z" fill="#858FA4"/>
</svg>
