<svg width="55" height="20" viewBox="0 0 55 20" fill="none" xmlns="http://www.w3.org/2000/svg">
<path d="M10.5428 4.04349C10.3503 3.65723 10.0457 3.33866 9.66761 3.09944C9.27319 2.85789 8.80759 2.68869 8.27547 2.58833C7.73402 2.49031 7.10855 2.44597 6.38389 2.43896L3.03831 2.4413C2.69057 2.44597 2.34983 2.71669 2.26814 3.05277L0.017144 12.8573C-0.0645408 13.1887 0.153674 13.4664 0.501418 13.4664H2.10361C2.45135 13.4664 2.79559 13.1968 2.87261 12.8573L3.42223 10.4767C3.49575 10.1453 3.83882 9.86878 4.19007 9.86878H4.64867C6.60794 9.86644 8.12494 9.46619 9.21485 8.66451C10.3106 7.86167 10.8509 6.80093 10.8509 5.48697C10.8497 4.91168 10.7552 4.42857 10.5428 4.04349ZM7.08754 7.2467C6.60327 7.60144 5.92995 7.77881 5.06176 7.77881H4.66967C4.32076 7.77881 4.10722 7.50342 4.18307 7.16735L4.66501 5.08555C4.73269 4.75181 5.08393 4.47525 5.42818 4.47758L5.95329 4.47408C6.56593 4.47408 7.03386 4.58027 7.3466 4.78565C7.65584 4.9887 7.81104 5.31194 7.8087 5.7402C7.81804 6.39134 7.56948 6.89195 7.08754 7.2467Z" fill="#858FA4"/>
<path d="M18.2683 5.44471C17.6638 5.10396 16.7093 4.93359 15.4046 4.93359C14.7593 4.93359 14.1164 4.98377 13.4664 5.08413C12.9868 5.15764 12.9401 5.17165 12.6449 5.23583C12.0357 5.36886 11.94 5.97682 11.94 5.97682L11.744 6.78317C11.6331 7.29778 11.9295 7.27795 12.0532 7.23477C12.3193 7.15542 12.4675 7.07373 13.0113 6.95237C13.5306 6.83451 14.0778 6.74583 14.5119 6.75166C15.1526 6.75166 15.6427 6.81934 15.9694 6.95704C16.2915 7.09707 16.4525 7.33746 16.4525 7.6852L16.4245 7.91159L16.1935 8.05395C15.2844 8.11113 14.6275 8.19515 13.8305 8.31067C13.051 8.4192 12.3671 8.60941 11.7988 8.86963C11.1885 9.13802 10.7358 9.49861 10.4195 9.95721C10.1138 10.4181 9.96094 10.9771 9.96094 11.6329C9.96094 12.2502 10.1827 12.7602 10.6132 13.1546C11.0462 13.542 11.618 13.731 12.3018 13.731C12.7347 13.7287 13.0696 13.6949 13.3077 13.6377L14.0837 13.3705L14.7407 13.0064L15.3451 12.6073L15.3533 12.619L15.2926 12.8757L15.2891 12.8862V12.8885C15.2238 13.2013 15.4128 13.458 15.7174 13.4883L15.7232 13.4953H15.7512H16.98H17.211L17.232 13.486C17.5518 13.4486 17.8517 13.1919 17.9217 12.8862L19.0898 7.8299L19.1505 7.41798L19.1785 7.03173C19.1831 6.31523 18.8739 5.78428 18.2683 5.44471ZM15.6847 11.13L15.435 11.459L14.8048 11.7846C14.5084 11.9048 14.2272 11.9655 13.967 11.9655C13.5726 11.9655 13.2633 11.9083 13.0545 11.7916L12.7452 11.1906C12.7452 10.8651 12.8199 10.6072 12.9798 10.4088L13.6589 9.9467C13.9495 9.84868 14.3042 9.76583 14.715 9.70865C15.0814 9.66314 15.8049 9.58029 15.8994 9.57796L16.0103 9.77283C15.9881 9.88369 15.7827 10.7425 15.6847 11.13Z" fill="#858FA4"/>
<path d="M47.3698 5.45173C46.7619 5.11099 45.8085 4.93945 44.5074 4.93945C43.8621 4.93945 43.2179 4.98963 42.5703 5.09349C42.0895 5.1635 42.0417 5.17867 41.7453 5.24169C41.1373 5.37355 41.0428 5.98385 41.0428 5.98385L40.8467 6.78903C40.737 7.30364 41.0264 7.2803 41.1618 7.24063C41.429 7.16128 41.5726 7.08309 42.1117 6.95707C42.6286 6.84037 43.1806 6.75402 43.6158 6.75636C44.2541 6.75636 44.7443 6.8252 45.0698 6.9629C45.3942 7.10293 45.5529 7.34565 45.5529 7.6899L45.5284 7.91511L45.2997 8.06098C44.3813 8.11582 43.7232 8.19984 42.9344 8.31537C42.1572 8.42389 41.471 8.61293 40.9016 8.87432C40.2936 9.14388 39.835 9.50446 39.5223 9.96423C39.213 10.4252 39.0625 10.983 39.0625 11.6329C39.0625 12.2549 39.2819 12.7649 39.7183 13.1569C40.1536 13.5432 40.7195 13.7369 41.4034 13.7369C41.8339 13.7322 42.1689 13.7042 42.4081 13.6424L43.1817 13.3787L43.8446 13.0146L44.4444 12.6108L44.4549 12.6237L44.4 12.8827L44.3942 12.8874L44.3965 12.892C44.3242 13.2048 44.5144 13.4638 44.8224 13.4918L44.8248 13.4977H44.8528C45.0547 13.4977 45.7525 13.4977 46.0851 13.4977H46.3114L46.3359 13.4895C46.6522 13.451 46.9509 13.1943 47.0174 12.885L48.189 7.83576L48.2509 7.4215L48.2847 7.03408C48.2859 6.31993 47.9801 5.79131 47.3698 5.45173ZM44.7921 11.137L44.5319 11.4696L43.9076 11.7928C43.6112 11.9118 43.3288 11.9737 43.0732 11.9737C42.666 11.9737 42.3649 11.9153 42.1619 11.7986L41.8491 11.2C41.8491 10.8733 41.925 10.6177 42.0778 10.4158C42.233 10.2256 42.4699 10.0693 42.764 9.9549C43.0511 9.85687 43.4058 9.77752 43.8189 9.71801C44.183 9.6725 44.9041 9.58731 44.9975 9.58615L45.1107 9.78102C45.0943 9.89188 44.8878 10.7472 44.7921 11.137Z" fill="#858FA4"/>
<path d="M39.6413 4.07932C39.4406 3.69073 39.1396 3.37683 38.7591 3.13178C38.3694 2.88906 37.9073 2.71869 37.367 2.62066C36.8361 2.52614 36.2024 2.4748 35.4824 2.47363L32.1322 2.47597C31.7833 2.4818 31.4484 2.75253 31.3678 3.0851L29.1145 12.8943C29.0328 13.2268 29.2569 13.5022 29.5976 13.5022L31.2021 13.4999C31.5429 13.5022 31.8918 13.2292 31.9723 12.8931L32.5149 10.5114C32.5943 10.18 32.9385 9.90111 33.2851 9.90344H33.7437C35.7053 9.90344 37.2258 9.49969 38.3204 8.70034C39.4021 7.89166 39.9494 6.83326 39.9494 5.51814C39.9436 4.94518 39.8444 4.46091 39.6413 4.07932ZM36.1861 7.2872C35.703 7.63494 35.0285 7.81231 34.165 7.81231H33.7659C33.4216 7.81581 33.1987 7.53575 33.2758 7.20201L33.7612 5.12372C33.8324 4.79115 34.1801 4.51225 34.5267 4.51575L35.046 4.51225C35.6621 4.51575 36.1242 4.61727 36.4393 4.82265C36.7532 5.02803 36.9014 5.3501 36.9049 5.7772C36.9084 6.42834 36.6668 6.93012 36.1861 7.2872Z" fill="#858FA4"/>
<path d="M53.3779 3.16323C53.4514 2.82832 53.2414 2.55643 52.8971 2.56109H51.4618C51.1677 2.56109 50.9028 2.77931 50.7733 3.0477L50.694 3.1714L50.6216 3.4888L48.6157 12.6072L48.5503 12.8872L48.5527 12.8942C48.4861 13.1941 48.6705 13.4205 48.9553 13.4637L48.9798 13.4975H50.4699C50.7617 13.4975 51.0359 13.2758 51.1607 13.0027L51.2378 12.886L53.3826 3.16439L53.3779 3.16323Z" fill="#858FA4"/>
<path d="M29.1544 5.05628C28.7752 5.06095 27.2337 5.05628 27.2337 5.05628C26.8883 5.05628 26.4448 5.33518 26.2255 5.66775C26.2255 5.66775 23.9313 9.60496 23.7084 10.0005L23.4423 9.99704L22.7282 5.69459C22.6488 5.35618 22.2953 5.06679 21.8553 5.06679L20.42 5.06912C20.0746 5.06912 19.8622 5.34452 19.9404 5.68059C19.9404 5.68059 21.0303 11.8828 21.2485 13.3426C21.3501 14.1478 21.2357 14.2913 21.2357 14.2913L19.8167 16.7629C19.6067 17.0989 19.7199 17.3732 20.0641 17.3732L21.7235 17.3708C22.0689 17.3708 22.5228 17.0989 22.7282 16.7617L29.1113 5.96532C29.1113 5.96649 29.7251 5.04345 29.1544 5.05628Z" fill="#858FA4"/>
</svg>
