<svg width="30" height="32" viewBox="0 0 30 32" fill="none" xmlns="http://www.w3.org/2000/svg">
<path d="M22.1464 15.7524L19.8047 17.8682L21.9191 20.2084L24.2609 18.0927L22.1464 15.7524Z" fill="#858FA4"/>
<path d="M17.4823 17.6557L14.3594 20.4668L17.1719 23.5912L20.2948 20.7801L17.4823 17.6557Z" fill="#858FA4"/>
<path d="M26.3724 15.0076L24.8125 16.4136L26.2184 17.9735L27.7783 16.5675L26.3724 15.0076Z" fill="#858FA4"/>
<path d="M17.9847 6.09993L15.6406 8.20996L17.7506 10.554L20.0947 8.44399L17.9847 6.09993Z" fill="#858FA4"/>
<path d="M24.3731 10.3464L22.8164 11.7529L24.2242 13.3111L25.781 11.9046L24.3731 10.3464Z" fill="#858FA4"/>
<path d="M15.2665 12.2433L12.1406 15.0571L14.9531 18.1815L18.079 15.3677L15.2665 12.2433Z" fill="#858FA4"/>
<path d="M13.0307 6.91897L9.90625 9.73145L12.7187 12.8559L15.8431 10.0434L13.0307 6.91897Z" fill="#858FA4"/>
<path d="M20.1351 10.8138L17.7969 12.9243L19.9114 15.267L22.2496 13.1565L20.1351 10.8138Z" fill="#858FA4"/>
<path d="M22.3685 5.7127L20.8086 7.11865L22.2145 8.67853L23.7744 7.27258L22.3685 5.7127Z" fill="#858FA4"/>
<path d="M24.2103 20.4878L21.8672 22.5991L23.9798 24.9437L26.3229 22.8324L24.2103 20.4878Z" fill="#858FA4"/>
<path d="M20.1023 23.1439L17.0483 25.9599L11.8923 20.2219L13.3262 18.9599L9.71625 14.9179L11.1582 13.6539L7.49425 9.61591L13.2123 4.4679L15.0283 6.45591L18.0943 3.71991L19.9063 5.5979L21.1143 4.5159C20.8443 4.3599 20.5742 4.2159 20.3002 4.0859C18.5582 3.2339 16.6023 2.75391 14.5423 2.75391C7.30825 2.75391 1.40625 8.6539 1.40625 15.8899C1.40625 23.1239 7.30825 29.0239 14.5423 29.0239C16.8923 29.0239 19.1063 28.4019 21.0163 27.3119C21.6463 26.9559 22.2202 26.5699 22.7442 26.1639L20.1023 23.1439Z" fill="#858FA4"/>
</svg>
