<svg width="40" height="40" viewBox="0 0 40 40" fill="none" xmlns="http://www.w3.org/2000/svg">
<path d="M16.0172 14.0479L13.9844 25.9774H17.2356L19.2702 14.0479H16.0172Z" fill="#858FA4"/>
<path d="M11.2582 14.0611L8.07389 22.1967L7.73438 20.9683C7.10637 19.4882 5.32354 17.3625 3.23047 16.0229L6.14221 25.9715L9.58244 25.9656L14.7026 14.0586L11.2582 14.0611Z" fill="#858FA4"/>
<path d="M6.49914 14.915C6.31016 14.1883 5.76243 13.9717 5.08258 13.9458H0.0418113L0 14.1833C3.92273 15.1349 6.51838 17.4278 7.59543 20.1849L6.49914 14.915Z" fill="#858FA4"/>
<path d="M25.859 16.3347C26.9227 16.318 27.6937 16.5505 28.2924 16.7913L28.5859 16.9293L29.0258 14.3437C28.3819 14.102 27.3726 13.8428 26.1132 13.8428C22.9004 13.8428 20.6359 15.4609 20.6184 17.7797C20.5975 19.4931 22.2314 20.4498 23.4657 21.0209C24.7326 21.6063 25.1574 21.9784 25.1515 22.5011C25.1415 23.2996 24.1414 23.6659 23.2073 23.6659C21.9053 23.6659 21.2138 23.4861 20.1459 23.0413L19.7269 22.8506L19.2695 25.5207C20.0305 25.8543 21.4345 26.1411 22.8921 26.1562C26.3097 26.1562 28.5307 24.5573 28.5541 22.0796C28.5684 20.7241 27.7012 19.6897 25.8222 18.8409C24.6849 18.2873 23.9892 17.9194 23.9959 17.3608C23.9959 16.8649 24.5863 16.3347 25.859 16.3347Z" fill="#858FA4"/>
<path d="M37.3672 14.061H34.8551C34.0749 14.061 33.4946 14.2734 33.1517 15.0511L28.3242 25.9839H31.7385C31.7385 25.9839 32.2954 24.5138 32.4217 24.1919C32.7955 24.1919 36.1128 24.1969 36.5853 24.1969C36.6823 24.6134 36.9817 25.9839 36.9817 25.9839H39.9979L37.3672 14.061ZM33.3575 21.7501C33.6251 21.0653 34.6528 18.4161 34.6528 18.4161C34.6352 18.4487 34.9179 17.7262 35.0859 17.2772L35.305 18.3057C35.305 18.3057 35.928 21.1539 36.0585 21.7501H33.3575Z" fill="#858FA4"/>
</svg>
